<?xml version="1.0" encoding="UTF-8"?>
<!-- 안 4: 민트 그라데이션 — 거북이 셸과 조화, 자연스러운 '성장' 이미지 -->
<svg xmlns="http://www.w3.org/2000/svg" viewBox="0 0 1024 1024" width="1024" height="1024">
  <defs>
    <linearGradient id="bg4" x1="0" y1="0" x2="0" y2="1">
      <stop offset="0%" stop-color="#C5F0D8"/>
      <stop offset="100%" stop-color="#7EDCAA"/>
    </linearGradient>
    <radialGradient id="glow4" cx="0.5" cy="0.42" r="0.55">
      <stop offset="0%" stop-color="#FFFFFF" stop-opacity="0.5"/>
      <stop offset="100%" stop-color="#FFFFFF" stop-opacity="0"/>
    </radialGradient>
  </defs>
  <rect width="1024" height="1024" fill="url(#bg4)"/>
  <rect width="1024" height="1024" fill="url(#glow4)"/>
  <ellipse cx="512" cy="760" rx="320" ry="28" fill="#2A6B48" opacity="0.22"/>
  <g transform="translate(128, 156) scale(6.4)">
    <ellipse cx="30" cy="72" rx="10" ry="6" fill="#F2DC8C" stroke="#3A9B6A" stroke-width="2" transform="rotate(-20 30 72)"/>
    <ellipse cx="78" cy="76" rx="10" ry="6" fill="#F2DC8C" stroke="#3A9B6A" stroke-width="2" transform="rotate(15 78 76)"/>
    <ellipse cx="28" cy="54" rx="9" ry="5.5" fill="#F2DC8C" stroke="#3A9B6A" stroke-width="2" transform="rotate(-10 28 54)"/>
    <path d="M18 60 L10 55" stroke="#F2DC8C" stroke-width="4" stroke-linecap="round"/>
    <ellipse cx="55" cy="58" rx="35" ry="20" fill="#F5E6C8" stroke="#3A9B6A" stroke-width="2"/>
    <ellipse cx="52" cy="42" rx="32" ry="28" fill="#7EDCAA" stroke="#3A9B6A" stroke-width="2.5"/>
    <path d="M52 18 L42 32 L42 48 L52 58 L62 48 L62 32 Z" fill="none" stroke="#3A9B6A" stroke-width="1.3" opacity="0.35"/>
    <line x1="42" y1="32" x2="24" y2="38" stroke="#3A9B6A" stroke-width="1.3" opacity="0.35"/>
    <line x1="62" y1="32" x2="80" y2="38" stroke="#3A9B6A" stroke-width="1.3" opacity="0.35"/>
    <line x1="42" y1="48" x2="26" y2="56" stroke="#3A9B6A" stroke-width="1.3" opacity="0.35"/>
    <line x1="62" y1="48" x2="78" y2="56" stroke="#3A9B6A" stroke-width="1.3" opacity="0.35"/>
    <ellipse cx="42" cy="26" rx="6" ry="4" fill="white" opacity="0.35" transform="rotate(-15 42 26)"/>
    <ellipse cx="62" cy="36" rx="4" ry="3" fill="white" opacity="0.2"/>
    <ellipse cx="92" cy="40" rx="17" ry="15" fill="#F5E6C8" stroke="#3A9B6A" stroke-width="2.5"/>
    <ellipse cx="82" cy="72" rx="10" ry="6" fill="#F2DC8C" stroke="#3A9B6A" stroke-width="2" transform="rotate(10 82 72)"/>
    <circle cx="99" cy="35" r="4" fill="white" stroke="#3A9B6A" stroke-width="1.5"/>
    <circle cx="100" cy="34" r="2.5" fill="#3A9B6A"/>
    <circle cx="101" cy="33" r="1" fill="white"/>
    <circle cx="100" cy="44" r="3.5" fill="#F0A050" opacity="0.4"/>
    <path d="M94 46 Q98 50 103 46" fill="none" stroke="#3A9B6A" stroke-width="1.5" stroke-linecap="round"/>
  </g>
</svg>
