<?xml version="1.0" encoding="UTF-8"?>
<!-- 안 5: 네이비 — 어두운 배경 + 대비로 거북이 pop, 고급감/차분함 -->
<svg xmlns="http://www.w3.org/2000/svg" viewBox="0 0 1024 1024" width="1024" height="1024">
  <defs>
    <linearGradient id="bg5" x1="0" y1="0" x2="0" y2="1">
      <stop offset="0%" stop-color="#2E4A6B"/>
      <stop offset="100%" stop-color="#1A2F47"/>
    </linearGradient>
    <radialGradient id="glow5" cx="0.5" cy="0.38" r="0.65">
      <stop offset="0%" stop-color="#6BADE8" stop-opacity="0.32"/>
      <stop offset="100%" stop-color="#6BADE8" stop-opacity="0"/>
    </radialGradient>
  </defs>
  <rect width="1024" height="1024" fill="url(#bg5)"/>
  <rect width="1024" height="1024" fill="url(#glow5)"/>
  <!-- 별 같은 작은 점 장식 (조용한 밤 느낌) -->
  <circle cx="170" cy="200" r="3" fill="#FFF" opacity="0.6"/>
  <circle cx="860" cy="280" r="4" fill="#FFF" opacity="0.5"/>
  <circle cx="880" cy="180" r="2" fill="#FFF" opacity="0.4"/>
  <circle cx="140" cy="320" r="2" fill="#FFF" opacity="0.4"/>
  <ellipse cx="512" cy="760" rx="320" ry="28" fill="#000" opacity="0.35"/>
  <g transform="translate(128, 156) scale(6.4)">
    <ellipse cx="30" cy="72" rx="10" ry="6" fill="#F2DC8C" stroke="#3A9B6A" stroke-width="2" transform="rotate(-20 30 72)"/>
    <ellipse cx="78" cy="76" rx="10" ry="6" fill="#F2DC8C" stroke="#3A9B6A" stroke-width="2" transform="rotate(15 78 76)"/>
    <ellipse cx="28" cy="54" rx="9" ry="5.5" fill="#F2DC8C" stroke="#3A9B6A" stroke-width="2" transform="rotate(-10 28 54)"/>
    <path d="M18 60 L10 55" stroke="#F2DC8C" stroke-width="4" stroke-linecap="round"/>
    <ellipse cx="55" cy="58" rx="35" ry="20" fill="#F5E6C8" stroke="#3A9B6A" stroke-width="2"/>
    <ellipse cx="52" cy="42" rx="32" ry="28" fill="#7EDCAA" stroke="#3A9B6A" stroke-width="2.5"/>
    <path d="M52 18 L42 32 L42 48 L52 58 L62 48 L62 32 Z" fill="none" stroke="#3A9B6A" stroke-width="1.3" opacity="0.35"/>
    <line x1="42" y1="32" x2="24" y2="38" stroke="#3A9B6A" stroke-width="1.3" opacity="0.35"/>
    <line x1="62" y1="32" x2="80" y2="38" stroke="#3A9B6A" stroke-width="1.3" opacity="0.35"/>
    <line x1="42" y1="48" x2="26" y2="56" stroke="#3A9B6A" stroke-width="1.3" opacity="0.35"/>
    <line x1="62" y1="48" x2="78" y2="56" stroke="#3A9B6A" stroke-width="1.3" opacity="0.35"/>
    <ellipse cx="42" cy="26" rx="6" ry="4" fill="white" opacity="0.35" transform="rotate(-15 42 26)"/>
    <ellipse cx="62" cy="36" rx="4" ry="3" fill="white" opacity="0.2"/>
    <ellipse cx="92" cy="40" rx="17" ry="15" fill="#F5E6C8" stroke="#3A9B6A" stroke-width="2.5"/>
    <ellipse cx="82" cy="72" rx="10" ry="6" fill="#F2DC8C" stroke="#3A9B6A" stroke-width="2" transform="rotate(10 82 72)"/>
    <circle cx="99" cy="35" r="4" fill="white" stroke="#3A9B6A" stroke-width="1.5"/>
    <circle cx="100" cy="34" r="2.5" fill="#3A9B6A"/>
    <circle cx="101" cy="33" r="1" fill="white"/>
    <circle cx="100" cy="44" r="3.5" fill="#F0A050" opacity="0.4"/>
    <path d="M94 46 Q98 50 103 46" fill="none" stroke="#3A9B6A" stroke-width="1.5" stroke-linecap="round"/>
  </g>
</svg>
